<?xml version="1.0" encoding="UTF-8" standalone="no"?>
<!-- Created with Inkscape (http://www.inkscape.org/) -->

<svg
   xmlns:dc="http://purl.org/dc/elements/1.1/"
   xmlns:cc="http://creativecommons.org/ns#"
   xmlns:rdf="http://www.w3.org/1999/02/22-rdf-syntax-ns#"
   xmlns:svg="http://www.w3.org/2000/svg"
   xmlns="http://www.w3.org/2000/svg"
   xmlns:sodipodi="http://sodipodi.sourceforge.net/DTD/sodipodi-0.dtd"
   xmlns:inkscape="http://www.inkscape.org/namespaces/inkscape"
   width="48"
   height="58"
   id="svg3465"
   sodipodi:version="0.32"
   inkscape:version="0.92.1 r15371"
   sodipodi:docname="system-unlock-screen.svg"
   version="1.1">
  <defs
     id="defs3467" />
  <sodipodi:namedview
     id="base"
     pagecolor="#ffffff"
     bordercolor="#666666"
     borderopacity="1.0"
     inkscape:pageopacity="0.0"
     inkscape:pageshadow="2"
     inkscape:zoom="3.9479168"
     inkscape:cx="-8.5229874"
     inkscape:cy="18.768929"
     inkscape:current-layer="layer1"
     showgrid="true"
     inkscape:grid-bbox="true"
     inkscape:document-units="px"
     inkscape:grid-points="true"
     inkscape:window-width="1280"
     inkscape:window-height="703"
     inkscape:window-x="0"
     inkscape:window-y="27"
     inkscape:window-maximized="1" />
  <metadata
     id="metadata3470">
    <rdf:RDF>
      <cc:Work
         rdf:about="">
        <dc:format>image/svg+xml</dc:format>
        <dc:type
           rdf:resource="http://purl.org/dc/dcmitype/StillImage" />
        <dc:title></dc:title>
      </cc:Work>
    </rdf:RDF>
  </metadata>
  <g
     id="layer1"
     inkscape:label="Layer 1"
     inkscape:groupmode="layer"
     transform="translate(0,10)">
    <rect
       style="fill:none;fill-opacity:0.75;fill-rule:evenodd;stroke:none;stroke-width:1px;stroke-linecap:butt;stroke-linejoin:miter;stroke-opacity:1"
       id="rect4928"
       width="48"
       height="48"
       x="0"
       y="0" />
    <path
       sodipodi:nodetypes="cccccccccccccsccsccccc"
       inkscape:r_cy="true"
       inkscape:r_cx="true"
       id="path4200"
       d="M 24,4 C 17,4 12,8.1739046 12,15 v 6 h -2 c -2,0 -3,1 -3,3 v 17 c 0,0.980326 1,3 3,3 H 39.384016 C 41,43.990546 42,41.980324 42,41 V 24 c 0,-2 -1,-3.009454 -3,-3.009454 L 37,21 V 15 C 37,8 32,4 25,4 Z m 0,5 h 1 c 7,0 7,6 7,8 v 4 H 17 v -4 c 0,-2 0,-8 7,-8 z"
       style="color:#000000;display:block;overflow:visible;visibility:visible;opacity:1;fill:#ffffff;fill-opacity:1;fill-rule:nonzero;stroke:#ffffff;stroke-width:8;stroke-linecap:butt;stroke-linejoin:miter;stroke-miterlimit:10;stroke-dasharray:none;stroke-dashoffset:0;stroke-opacity:1;marker:none;marker-start:none;marker-mid:none;marker-end:none"
       inkscape:connector-curvature="0" />
    <path
       id="path2086-3"
       style="color:#000000;display:block;overflow:visible;visibility:visible;opacity:1;fill:#000000;fill-opacity:1;fill-rule:nonzero;stroke:none;stroke-width:0.9999997;stroke-linecap:butt;stroke-linejoin:miter;stroke-miterlimit:10;stroke-dasharray:none;stroke-dashoffset:0;stroke-opacity:1;marker:none;marker-start:none;marker-mid:none;marker-end:none"
       d="M 32,11.263853 H 17 m 0,0 v -4 c 0,-2 0,-7.999999 7,-7.999999 h 1 c 7,0 7,5.999999 7,7.999999 v 14 l 5,4.6e-5 V 5.2639 c 0,-7 -5,-11 -12,-11 l -1,-4.6e-5 c -7,0 -12,4.173904 -12,11 v 5.999999 M 12,21 h -2 c -2,0 -3,1 -3,3 v 17 c 0,0.980326 1,3 3,3 H 39.384016 C 41,43.990546 42,41.980324 42,41 V 24 c 0,-2 -1,-3.009454 -3,-3.009454 L 37,21" />
  </g>
</svg>
