<?xml version="1.0" encoding="UTF-8" standalone="no"?>
<svg
   xmlns:dc="http://purl.org/dc/elements/1.1/"
   xmlns:cc="http://creativecommons.org/ns#"
   xmlns:rdf="http://www.w3.org/1999/02/22-rdf-syntax-ns#"
   xmlns:svg="http://www.w3.org/2000/svg"
   xmlns="http://www.w3.org/2000/svg"
   xmlns:sodipodi="http://sodipodi.sourceforge.net/DTD/sodipodi-0.dtd"
   xmlns:inkscape="http://www.inkscape.org/namespaces/inkscape"
   version="1.1"
   x="0px"
   y="0px"
   viewBox="0 0 83.989967 72.004051"
   id="svg3742"
   sodipodi:docname="warning.svg"
   width="83.989967"
   height="72.004051"
   inkscape:version="0.92.1 r15371">
  <metadata
     id="metadata3748">
    <rdf:RDF>
      <cc:Work
         rdf:about="">
        <dc:format>image/svg+xml</dc:format>
        <dc:type
           rdf:resource="http://purl.org/dc/dcmitype/StillImage" />
        <dc:title></dc:title>
      </cc:Work>
    </rdf:RDF>
  </metadata>
  <defs
     id="defs3746" />
  <sodipodi:namedview
     pagecolor="#ffffff"
     bordercolor="#666666"
     borderopacity="1"
     objecttolerance="10"
     gridtolerance="10"
     guidetolerance="10"
     inkscape:pageopacity="0"
     inkscape:pageshadow="2"
     inkscape:window-width="1280"
     inkscape:window-height="703"
     id="namedview3744"
     showgrid="false"
     fit-margin-top="0"
     fit-margin-left="0"
     fit-margin-right="0"
     fit-margin-bottom="0"
     inkscape:zoom="3.744"
     inkscape:cx="41.994985"
     inkscape:cy="23.502028"
     inkscape:window-x="0"
     inkscape:window-y="27"
     inkscape:window-maximized="1"
     inkscape:current-layer="svg3742" />
  <g
     transform="translate(-8.0050154,-966.36015)"
     id="g3736"
     style="fill:#d40000">
    <path
       style="color:#000000;text-indent:0;text-transform:none;direction:ltr;baseline-shift:baseline;display:inline;overflow:visible;visibility:visible;fill:#d40000;stroke:none;enable-background:accumulate"
       d="m 49.78125,966.36415 a 4.6738692,4.5486552 0 0 0 -3.84375,2.2812 L 8.6249999,1031.5517 a 4.6738692,4.5486552 0 0 0 4.0625001,6.8125 h 74.625 a 4.6738692,4.5486552 0 0 0 4.0625,-6.8125 L 54.03125,968.64535 a 4.6738692,4.5486552 0 0 0 -4.25,-2.2812 z m 0.21875,20 c 2.20912,0 4,1.7909 4,4 l -1,18.00005 c 0,1.6568 -1.34316,3 -3,3 -1.65685,0 -3,-1.3432 -3,-3 l -1,-18.00005 c 0,-2.2091 1.79087,-4 4,-4 z m 0,30.00005 c 2.76142,0 5,2.2386 5,5 0,2.7614 -2.23858,5 -5,5 -2.76142,0 -5,-2.2386 -5,-5 0,-2.7614 2.23858,-5 5,-5 z"
       marker="none"
       visibility="visible"
       display="inline"
       overflow="visible"
       id="path3734"
       inkscape:connector-curvature="0" />
  </g>
</svg>
