<?xml version="1.0" encoding="UTF-8" standalone="no"?>
<svg
   xmlns:dc="http://purl.org/dc/elements/1.1/"
   xmlns:cc="http://creativecommons.org/ns#"
   xmlns:rdf="http://www.w3.org/1999/02/22-rdf-syntax-ns#"
   xmlns:svg="http://www.w3.org/2000/svg"
   xmlns="http://www.w3.org/2000/svg"
   xmlns:sodipodi="http://sodipodi.sourceforge.net/DTD/sodipodi-0.dtd"
   xmlns:inkscape="http://www.inkscape.org/namespaces/inkscape"
   version="1.1"
   width="32.977753"
   height="37.795277"
   id="图层_1"
   inkscape:version="0.92.1 r15371"
   sodipodi:docname="tor-connected-symbolic.svg">
  <metadata
     id="metadata22">
    <rdf:RDF>
      <cc:Work
         rdf:about="">
        <dc:format>image/svg+xml</dc:format>
        <dc:type
           rdf:resource="http://purl.org/dc/dcmitype/StillImage" />
        <dc:title></dc:title>
      </cc:Work>
    </rdf:RDF>
  </metadata>
  <defs
     id="defs20">
    <radialGradient
       id="radialGradient2842"
       gradientUnits="userSpaceOnUse"
       cx="24.129999"
       cy="37.967999"
       r="16.528999"
       gradientTransform="matrix(1,0,0,0.23797,0,28.933)">
      <stop
         id="stop4479"
         offset="0" />
      <stop
         id="stop4481"
         stop-opacity="0"
         offset="1" />
    </radialGradient>
    <linearGradient
       id="linearGradient2852"
       y2="30.558001"
       gradientUnits="userSpaceOnUse"
       y1="26.58"
       x2="31.336"
       x1="27.365999">
      <stop
         id="stop2848"
         stop-color="#8a8a8a"
         offset="0" />
      <stop
         id="stop2850"
         stop-color="#484848"
         offset="1" />
    </linearGradient>
    <linearGradient
       id="linearGradient4446"
       y2="31.062"
       gradientUnits="userSpaceOnUse"
       x2="33.219002"
       gradientTransform="matrix(1.3346,0,0,1.2913,-6.9738,-7.4607)"
       y1="34"
       x1="30.656">
      <stop
         id="stop4442"
         stop-color="#7d7d7d"
         offset="0" />
      <stop
         id="stop4448"
         stop-color="#b1b1b1"
         offset=".5" />
      <stop
         id="stop4444"
         stop-color="#686868"
         offset="1" />
    </linearGradient>
    <linearGradient
       id="linearGradient2372"
       y2="25.743"
       gradientUnits="userSpaceOnUse"
       y1="13.602"
       x2="17.500999"
       x1="18.292999">
      <stop
         id="stop2368"
         stop-color="#fff"
         offset="0" />
      <stop
         id="stop2374"
         stop-color="#fff"
         stop-opacity=".21905"
         offset=".5" />
      <stop
         id="stop2370"
         stop-color="#fff"
         offset="1" />
    </linearGradient>
    <radialGradient
       id="radialGradient4493"
       gradientUnits="userSpaceOnUse"
       cy="37.967999"
       cx="24.129999"
       gradientTransform="matrix(1,0,0,0.23797,0,28.933)"
       r="16.528999">
      <stop
         id="stop4489"
         stop-color="#fff"
         offset="0" />
      <stop
         id="stop4491"
         stop-color="#fff"
         stop-opacity="0"
         offset="1" />
    </radialGradient>
    <radialGradient
       id="radialGradient4460"
       gradientUnits="userSpaceOnUse"
       cy="21.818001"
       cx="18.240999"
       r="8.3085003">
      <stop
         id="stop4456"
         stop-color="#729fcf"
         stop-opacity=".20784"
         offset="0" />
      <stop
         id="stop4458"
         stop-color="#729fcf"
         stop-opacity=".67619"
         offset="1" />
    </radialGradient>
    <radialGradient
       id="radialGradient4473"
       gradientUnits="userSpaceOnUse"
       cy="13.078"
       cx="15.414"
       gradientTransform="matrix(2.593,0,0,2.2521,-25.06,-18.941)"
       r="6.6561999">
      <stop
         id="stop4469"
         stop-color="#fff"
         offset="0" />
      <stop
         id="stop4471"
         stop-color="#fff"
         stop-opacity=".24762"
         offset="1" />
    </radialGradient>
  </defs>
  <sodipodi:namedview
     pagecolor="#3a3a3a"
     bordercolor="#666666"
     borderopacity="1"
     objecttolerance="10"
     gridtolerance="10"
     guidetolerance="10"
     inkscape:pageopacity="1"
     inkscape:pageshadow="2"
     inkscape:window-width="1280"
     inkscape:window-height="703"
     id="namedview18"
     showgrid="false"
     fit-margin-top="0"
     fit-margin-left="0"
     fit-margin-right="0"
     fit-margin-bottom="0"
     inkscape:zoom="8.91"
     inkscape:cx="-6.3487947"
     inkscape:cy="12.25203"
     inkscape:window-x="0"
     inkscape:window-y="27"
     inkscape:window-maximized="1"
     inkscape:current-layer="图层_1" />
  <path
     style="opacity:1;fill:#000000;fill-opacity:1;stroke-width:2.37105536"
     d="m 13.760452,0 -2.302585,1.535057 c 2.190065,3.941524 -0.284284,7.190304 -1.362542,7.931591 -2.1900648,1.516122 -4.7624169,3.016079 -6.345638,4.66689 -3.06604143,3.133139 -3.97440009,6.135215 -3.70477413,10.076985 0.3031753,5.053824 4.09668353,10.35603 9.01532563,12.006842 2.1560215,0.707743 6.0134615,1.732696 8.2302225,1.558255 6.296334,-0.49547 9.125324,-2.448897 11.786805,-4.672513 2.829964,-2.358302 3.900488,-7.372584 3.900488,-11.044726 0,-3.705941 -1.692336,-7.089648 -4.421407,-9.582641 C 27.107568,11.1619 24.339466,10.235677 22.452821,9.191215 21.610637,8.719306 19.10737,5.564746 19.983347,2.667438 l -3.335421,-0.865948 0.66686,3.343297 c 0.04896,1.925224 0.182713,2.894346 0.964365,4.295288 1.853093,2.931106 2.882887,5.583126 3.556582,8.446884 1.619087,7.170483 0.431708,13.708185 -3.778869,17.04196 -0.161516,0.0052 -0.372836,0.08045 -0.518668,0.0741 -2.594134,-0.1347 -5.185934,-0.551845 -7.409548,-1.630101 -3.9415245,-1.920443 -6.5742036,-6.041162 -6.7426884,-9.41013 -0.3705201,-6.839079 3.3410907,-8.719745 6.3733369,-11.21274 2.0897595,-1.167247 3.6561795,-2.224547 5.0373665,-4.717787 0.269625,-0.538759 0.451366,-2.46053 0.148191,-3.707024 -0.134937,-0.437866 0.561034,1.384431 0.07746,0.18039 l 3.608607,0.739829 C 18.833193,4.343977 18.162661,2.187619 16.835297,1.849401 15.605879,1.536139 15.278066,1.480654 13.76045,0 Z"
     id="path2536"
     inkscape:connector-curvature="0"
     sodipodi:nodetypes="ccccccscsccccccccccccccccsc" />
</svg>
